<svg id="eAVOaXDFR611" xmlns="http://www.w3.org/2000/svg" xmlns:xlink="http://www.w3.org/1999/xlink" viewBox="0 0 300 300" shape-rendering="geometricPrecision" text-rendering="geometricPrecision" project-id="e9d711a1a4c4411695658d2ab1c58942" export-id="0c4fd7c6728b4af9a809e594d717ecda" cached="false" style="background-color:transparent"><g><path d="M20.120303,194.212209c0-64.362281,21.882156-173.571557,129.70449-173.571558s130.175281,108.482226,130.175281,173.571555-43.39176,65.089341-43.39176.000001c.000001-86.785775-36.715468-130.178666-86.783521-130.178666-57.795475,0-86.783521,40.722071-86.783521,130.178666c0,65.08934-43.39176,65.08934-42.920969.000002Z" transform="matrix(.460917 0 0 0.460905 80.49492 45.486621)" fill="#222021" stroke-width="0"/><path d="M80.29963,169.85019C80.29963,131.273,111.57262,100,150.14982,100s69.85019,31.27299,69.85019,69.85019c0,25.60276-13.77469,47.98827-34.31735,60.14981h-71.06569c-20.54266-12.16154-34.31735-34.54705-34.31735-60.14981h.00001ZM149.701529,200c20.83174,0,30-9.318124,30-30.149814s-9.018445-29.850186-29.850185-29.850186-30.149815,9.018496-30.149815,29.850186s9.16826,30.149814,30,30.149814Z" transform="translate(-.149815 15)" fill="#ef3816" stroke-width="0"/></g><line x1="-15" y1="0" x2="9.350879" y2="0" transform="matrix(0-1.026657 0.908678 0 149.701527 169.450334)" fill="none" stroke="#222021" stroke-width="3" stroke-linecap="round"/><line x1="-15" y1="0" x2="12.034041" y2="0" transform="matrix(-.739808 0 0-.654792 138.604409 184.850186)" fill="none" stroke="#222021" stroke-width="4.5" stroke-linecap="round"/></svg>
